<mxfile host="Electron" agent="Mozilla/5.0 (Windows NT 10.0; Win64; x64) AppleWebKit/537.36 (KHTML, like Gecko) draw.io/24.7.8 Chrome/128.0.6613.36 Electron/32.0.1 Safari/537.36" version="24.7.8">
  <diagram id="kgpKYQtTHZ0yAKxKKP6v" name="Page-1">
    <mxGraphModel dx="780" dy="496" grid="1" gridSize="10" guides="1" tooltips="1" connect="1" arrows="1" fold="1" page="1" pageScale="1" pageWidth="850" pageHeight="1100" math="0" shadow="0">
      <root>
        <mxCell id="0" />
        <mxCell id="1" parent="0" />
        <mxCell id="3nuBFxr9cyL0pnOWT2aG-1" value="" style="shape=table;childLayout=tableLayout;startSize=0;collapsible=0;recursiveResize=0;expand=0;fillColor=none;fontStyle=1" parent="1" vertex="1">
          <mxGeometry x="90" y="80" width="750" height="300" as="geometry" />
        </mxCell>
        <mxCell id="3nuBFxr9cyL0pnOWT2aG-3" value="User" style="shape=tableRow;horizontal=0;swimlaneHead=0;swimlaneBody=0;top=0;left=0;bottom=0;right=0;fillColor=none;points=[[0,0.5],[1,0.5]];portConstraint=eastwest;startSize=40;collapsible=0;recursiveResize=0;expand=0;fontStyle=1;" parent="3nuBFxr9cyL0pnOWT2aG-1" vertex="1">
          <mxGeometry width="750" height="300" as="geometry" />
        </mxCell>
        <mxCell id="3nuBFxr9cyL0pnOWT2aG-4" value="UI Layer" style="swimlane;swimlaneHead=0;swimlaneBody=0;connectable=0;fillColor=none;startSize=40;collapsible=0;recursiveResize=0;expand=0;fontStyle=1;" parent="3nuBFxr9cyL0pnOWT2aG-3" vertex="1">
          <mxGeometry x="40" width="210" height="300" as="geometry">
            <mxRectangle width="210" height="300" as="alternateBounds" />
          </mxGeometry>
        </mxCell>
        <mxCell id="OUFzbEv3HFNW8f1usmTI-4" value="Front end" style="shape=ext;double=1;rounded=1;whiteSpace=wrap;html=1;" vertex="1" parent="3nuBFxr9cyL0pnOWT2aG-4">
          <mxGeometry x="70" y="80" width="95" height="50" as="geometry" />
        </mxCell>
        <mxCell id="OUFzbEv3HFNW8f1usmTI-7" value="" style="endArrow=classic;html=1;rounded=0;exitX=0.053;exitY=0.5;exitDx=0;exitDy=0;exitPerimeter=0;" edge="1" parent="3nuBFxr9cyL0pnOWT2aG-4" source="3nuBFxr9cyL0pnOWT2aG-3">
          <mxGeometry width="50" height="50" relative="1" as="geometry">
            <mxPoint x="20" y="160" as="sourcePoint" />
            <mxPoint x="70" y="110" as="targetPoint" />
          </mxGeometry>
        </mxCell>
        <mxCell id="3nuBFxr9cyL0pnOWT2aG-8" value="API Layer" style="swimlane;swimlaneHead=0;swimlaneBody=0;connectable=0;fillColor=none;startSize=40;collapsible=0;recursiveResize=0;expand=0;fontStyle=1;" parent="3nuBFxr9cyL0pnOWT2aG-3" vertex="1">
          <mxGeometry x="250" width="353" height="300" as="geometry">
            <mxRectangle width="353" height="300" as="alternateBounds" />
          </mxGeometry>
        </mxCell>
        <mxCell id="OUFzbEv3HFNW8f1usmTI-8" value="Validator API" style="shape=ext;double=1;rounded=1;whiteSpace=wrap;html=1;" vertex="1" parent="3nuBFxr9cyL0pnOWT2aG-8">
          <mxGeometry x="60" y="80" width="95" height="50" as="geometry" />
        </mxCell>
        <mxCell id="OUFzbEv3HFNW8f1usmTI-9" value="Is proprietory information?" style="shape=ext;double=1;rounded=1;whiteSpace=wrap;html=1;" vertex="1" parent="3nuBFxr9cyL0pnOWT2aG-8">
          <mxGeometry x="211" y="80" width="95" height="50" as="geometry" />
        </mxCell>
        <mxCell id="OUFzbEv3HFNW8f1usmTI-13" value="" style="endArrow=classic;html=1;rounded=0;exitX=1;exitY=0.5;exitDx=0;exitDy=0;entryX=0;entryY=0.5;entryDx=0;entryDy=0;" edge="1" parent="3nuBFxr9cyL0pnOWT2aG-8" source="OUFzbEv3HFNW8f1usmTI-8" target="OUFzbEv3HFNW8f1usmTI-9">
          <mxGeometry width="50" height="50" relative="1" as="geometry">
            <mxPoint x="161" y="150" as="sourcePoint" />
            <mxPoint x="211" y="100" as="targetPoint" />
          </mxGeometry>
        </mxCell>
        <mxCell id="OUFzbEv3HFNW8f1usmTI-16" value="Yes" style="text;html=1;align=center;verticalAlign=middle;whiteSpace=wrap;rounded=0;" vertex="1" parent="3nuBFxr9cyL0pnOWT2aG-8">
          <mxGeometry x="307" y="80" width="46" height="20" as="geometry" />
        </mxCell>
        <mxCell id="OUFzbEv3HFNW8f1usmTI-17" value="No" style="text;strokeColor=none;align=center;fillColor=none;html=1;verticalAlign=middle;whiteSpace=wrap;rounded=0;" vertex="1" parent="3nuBFxr9cyL0pnOWT2aG-8">
          <mxGeometry x="260" y="180" width="60" height="30" as="geometry" />
        </mxCell>
        <mxCell id="3nuBFxr9cyL0pnOWT2aG-11" value="Database layer" style="swimlane;swimlaneHead=0;swimlaneBody=0;connectable=0;fillColor=none;startSize=40;collapsible=0;recursiveResize=0;expand=0;fontStyle=1;" parent="3nuBFxr9cyL0pnOWT2aG-3" vertex="1">
          <mxGeometry x="603" width="147" height="300" as="geometry">
            <mxRectangle width="147" height="300" as="alternateBounds" />
          </mxGeometry>
        </mxCell>
        <mxCell id="OUFzbEv3HFNW8f1usmTI-14" value="Data from external datasource" style="rounded=1;whiteSpace=wrap;html=1;" vertex="1" parent="3nuBFxr9cyL0pnOWT2aG-11">
          <mxGeometry x="13.5" y="75" width="120" height="60" as="geometry" />
        </mxCell>
        <mxCell id="OUFzbEv3HFNW8f1usmTI-12" value="" style="endArrow=classic;html=1;rounded=0;" edge="1" parent="3nuBFxr9cyL0pnOWT2aG-11">
          <mxGeometry width="50" height="50" relative="1" as="geometry">
            <mxPoint x="-43" y="100" as="sourcePoint" />
            <mxPoint x="13.5" y="100" as="targetPoint" />
          </mxGeometry>
        </mxCell>
        <mxCell id="OUFzbEv3HFNW8f1usmTI-15" value="Data from application datasource&amp;nbsp;" style="rounded=1;whiteSpace=wrap;html=1;" vertex="1" parent="3nuBFxr9cyL0pnOWT2aG-11">
          <mxGeometry x="13.5" y="180" width="120" height="60" as="geometry" />
        </mxCell>
        <mxCell id="OUFzbEv3HFNW8f1usmTI-10" value="" style="endArrow=classic;html=1;rounded=0;exitX=1;exitY=0.5;exitDx=0;exitDy=0;entryX=0;entryY=0.5;entryDx=0;entryDy=0;" edge="1" parent="3nuBFxr9cyL0pnOWT2aG-3" source="OUFzbEv3HFNW8f1usmTI-4" target="OUFzbEv3HFNW8f1usmTI-8">
          <mxGeometry width="50" height="50" relative="1" as="geometry">
            <mxPoint x="260" y="150" as="sourcePoint" />
            <mxPoint x="310" y="100" as="targetPoint" />
          </mxGeometry>
        </mxCell>
        <mxCell id="OUFzbEv3HFNW8f1usmTI-11" value="" style="endArrow=classic;html=1;rounded=0;entryX=0;entryY=0.5;entryDx=0;entryDy=0;exitX=0.5;exitY=1;exitDx=0;exitDy=0;" edge="1" parent="3nuBFxr9cyL0pnOWT2aG-3" source="OUFzbEv3HFNW8f1usmTI-9" target="OUFzbEv3HFNW8f1usmTI-15">
          <mxGeometry width="50" height="50" relative="1" as="geometry">
            <mxPoint x="350" y="200" as="sourcePoint" />
            <mxPoint x="400" y="150" as="targetPoint" />
          </mxGeometry>
        </mxCell>
      </root>
    </mxGraphModel>
  </diagram>
</mxfile>
